<?xml version="1.0" standalone="no"?>
<!DOCTYPE svg PUBLIC "-//W3C//DTD SVG 20010904//EN"
 "http://www.w3.org/TR/2001/REC-SVG-20010904/DTD/svg10.dtd">
<svg version="1.0" xmlns="http://www.w3.org/2000/svg"
 width="1000.000000pt" height="1000.000000pt" viewBox="0 0 1000.000000 1000.000000"
 preserveAspectRatio="xMidYMid meet">
<metadata>
Created by potrace 1.14, written by Peter Selinger 2001-2017
</metadata>
<g transform="translate(0.000000,1000.000000) scale(0.100000,-0.100000)"
fill="#000000" stroke="none">
<path d="M5069 8244 c-5 -6 -9 -830 -9 -2027 l0 -2016 -34 -11 c-28 -9 -40 -8
-65 4 -40 21 -59 20 -105 -9 -30 -18 -44 -21 -63 -14 -43 16 -73 10 -101 -20
-32 -34 -51 -41 -75 -29 -23 12 -84 -17 -92 -44 -7 -22 -32 -34 -88 -43 -32
-5 -40 -12 -58 -50 -17 -36 -27 -46 -54 -51 -35 -6 -74 -36 -76 -57 -3 -44
-26 -76 -56 -77 -23 0 -53 -43 -53 -77 0 -32 -9 -46 -58 -85 -20 -16 -29 -46
-22 -73 7 -26 -1 -51 -24 -72 -25 -23 -25 -23 -36 -3 -24 44 -18 86 22 171 54
116 56 160 9 210 -32 33 -136 74 -246 95 -11 2 -42 8 -70 14 -68 14 -83 17
-211 40 -62 11 -119 23 -128 26 -10 4 -16 1 -16 -7 0 -9 -3 -9 -12 2 -7 9 -71
35 -143 58 -259 86 -442 154 -541 202 -140 68 -269 155 -367 246 -20 18 -31
23 -39 15 -21 -21 49 -203 105 -269 56 -67 209 -193 234 -193 3 0 14 -6 22
-13 9 -7 50 -28 91 -47 41 -18 93 -41 115 -51 22 -10 90 -38 150 -63 61 -25
105 -45 98 -46 -7 0 -22 4 -35 10 -13 5 -77 30 -143 55 -66 25 -133 52 -150
60 -106 50 -134 64 -166 82 -20 12 -47 27 -60 35 -23 13 -33 20 -64 46 -16 13
-35 8 -35 -9 0 -27 75 -160 113 -199 85 -90 131 -113 407 -206 118 -40 211
-73 205 -73 -22 -2 -315 80 -395 109 -47 17 -114 47 -150 66 -80 42 -95 34
-60 -33 37 -70 147 -174 229 -217 39 -20 115 -48 169 -62 116 -30 340 -82 385
-89 17 -4 34 -8 36 -11 11 -11 -205 21 -274 40 -14 4 -98 17 -110 18 -5 0 -17
4 -26 9 -9 4 -31 11 -50 14 -18 3 -38 10 -44 15 -6 5 -17 5 -25 0 -13 -8 -13
-14 3 -42 47 -89 130 -143 256 -169 86 -18 109 -21 241 -34 36 -4 67 -9 70
-12 7 -7 -208 7 -264 18 -26 5 -52 6 -57 3 -11 -6 -12 -34 -1 -34 4 0 12 -10
17 -22 6 -13 37 -36 69 -53 59 -30 61 -30 222 -30 89 0 161 -2 159 -5 -6 -9
-71 -13 -187 -13 -114 1 -125 -4 -85 -41 56 -52 78 -60 174 -60 71 -1 90 -4
78 -12 -25 -19 -17 -31 30 -49 43 -17 107 -17 175 -1 53 13 85 16 70 7 -8 -5
-32 -11 -52 -15 -28 -5 -38 -12 -38 -26 0 -14 11 -20 43 -26 62 -12 100 -6
183 26 82 33 94 36 76 18 -21 -21 -13 -56 19 -93 26 -29 31 -44 33 -87 1 -48
4 -55 33 -73 18 -11 32 -26 33 -32 0 -7 4 -13 8 -13 5 0 7 -12 4 -28 -4 -30
29 -82 53 -82 21 0 55 -41 55 -66 0 -28 36 -64 65 -64 24 0 65 -34 65 -54 0
-22 36 -47 76 -53 28 -4 49 -17 76 -44 33 -36 40 -39 86 -38 44 2 53 -2 74
-26 17 -19 33 -27 54 -27 16 1 46 2 66 3 22 0 44 -5 53 -14 25 -25 53 -29 87
-13 35 18 69 21 84 7 5 -6 23 -12 40 -15 24 -4 38 0 59 18 27 24 47 26 106 11
20 -5 34 1 68 29 47 39 49 40 84 27 19 -7 30 -4 55 16 18 13 32 31 32 38 0 15
31 28 72 30 29 1 68 30 68 52 0 21 38 53 63 53 28 0 67 39 67 67 0 21 31 63
47 63 6 0 22 9 37 21 20 16 26 29 26 59 0 39 3 44 51 80 29 21 40 55 29 86 -9
23 1 44 36 80 22 21 25 32 21 60 l-6 34 37 -16 c20 -9 44 -18 52 -21 8 -3 22
-7 30 -10 73 -27 180 -15 180 20 0 7 -31 21 -70 32 -97 26 -80 31 21 6 97 -24
156 -27 203 -7 33 14 53 33 43 42 -2 3 -33 9 -68 15 -102 16 -111 18 -117 24
-4 3 7 4 23 1 163 -29 291 -30 342 -3 38 20 83 60 83 74 0 6 -44 9 -107 9 -60
-1 -124 2 -143 5 -19 4 23 7 95 9 72 1 144 4 160 6 62 11 155 65 155 92 0 6 5
12 12 14 7 3 9 12 5 22 -6 14 -14 16 -44 11 -37 -7 -52 -8 -160 -20 -32 -3
-53 -2 -53 4 0 5 8 9 18 9 69 -3 278 39 337 68 63 30 95 58 130 112 36 55 25
70 -37 53 -57 -16 -107 -29 -138 -35 -14 -3 -61 -12 -105 -21 -44 -9 -102 -18
-130 -21 -27 -2 -56 -7 -62 -9 -7 -2 -13 -1 -13 3 0 4 28 13 63 20 75 14 63
11 272 61 173 41 275 92 364 182 112 112 148 219 54 157 -60 -39 -210 -95
-368 -138 -112 -31 -229 -59 -232 -56 -2 1 97 35 220 75 208 68 357 132 357
152 0 5 5 9 11 9 13 0 86 77 100 105 5 11 23 45 39 75 50 93 38 106 -46 49
-48 -33 -234 -129 -329 -169 -52 -23 -248 -91 -251 -87 -2 1 40 20 94 41 93
37 119 48 242 103 173 78 277 150 373 263 15 18 27 34 27 37 0 3 9 17 20 32
26 37 71 176 64 195 -9 23 -13 21 -74 -34 -75 -68 -70 -64 -147 -113 -112 -72
-327 -178 -388 -192 -5 -1 -21 -6 -35 -12 -14 -5 -117 -41 -230 -78 -113 -38
-210 -73 -217 -79 -6 -6 -14 -40 -17 -76 -12 -126 -36 -223 -88 -350 -39 -97
-111 -229 -151 -278 -84 -103 -196 -185 -305 -221 l-57 -20 -15 32 c-18 38
-24 87 -10 87 6 0 10 6 10 14 0 24 17 28 47 12 42 -21 114 -29 159 -17 44 12
101 56 85 66 -18 11 -12 22 18 34 30 13 60 56 47 68 -4 4 -24 7 -44 6 -34 -2
-35 -2 -10 6 47 16 106 53 118 76 18 33 6 45 -33 34 -50 -14 -78 -10 -34 5 50
18 103 56 118 84 19 35 1 44 -55 27 -60 -18 -71 -13 -19 8 42 17 133 96 133
115 0 16 -35 15 -85 -2 -22 -7 -58 -16 -80 -20 l-40 -6 35 14 c65 25 162 77
184 99 27 28 51 75 43 83 -3 4 -37 -5 -74 -19 -38 -14 -118 -39 -178 -56 -263
-75 -294 -102 -245 -216 11 -26 20 -54 20 -63 -1 -9 -10 8 -21 38 -30 80 -38
112 -35 140 2 14 4 30 5 37 2 20 43 54 89 74 53 23 62 24 62 3 0 -12 8 -14 34
-10 57 9 198 57 256 87 107 54 142 109 61 95 -20 -4 -49 -9 -66 -12 -226 -37
-459 -93 -504 -122 -89 -55 -99 -110 -41 -224 38 -73 51 -131 38 -169 -12 -34
-18 -35 -49 -11 -18 16 -22 28 -20 70 1 53 -2 59 -57 100 -16 12 -23 30 -26
62 -5 45 -21 66 -62 76 -22 6 -39 31 -48 74 -4 21 -66 73 -66 55 0 -3 -13 1
-30 10 -18 9 -30 23 -30 35 0 28 -39 60 -75 60 -33 0 -75 24 -75 43 0 22 -55
45 -96 40 -33 -4 -43 0 -68 26 -21 22 -39 31 -62 31 -18 0 -35 -4 -38 -9 -8
-12 -45 -2 -78 21 -14 10 -31 18 -38 18 -11 0 5 17 80 80 23 19 52 44 65 55
27 23 93 78 137 115 17 14 44 37 60 53 16 15 31 27 34 27 3 0 15 10 28 22 13
13 45 41 72 63 27 22 61 52 76 67 16 14 28 23 28 20 0 -4 5 0 10 8 6 9 10 285
10 728 0 805 -9 735 81 650 25 -24 70 -63 99 -88 30 -25 64 -54 76 -65 13 -11
46 -40 75 -65 29 -25 64 -56 79 -70 14 -14 48 -43 74 -65 27 -22 55 -46 62
-53 11 -11 13 -61 8 -268 -6 -214 -5 -254 7 -254 12 0 65 37 117 81 7 6 61 47
120 91 58 45 111 85 117 90 11 9 75 58 119 91 15 12 40 32 53 45 14 12 29 22
33 22 3 0 15 8 26 18 10 10 48 40 84 67 36 27 67 53 68 57 2 4 8 8 13 8 12 0
59 41 59 52 0 5 -21 28 -46 51 -25 23 -86 81 -135 130 -84 82 -106 112 -76
103 30 -10 276 -15 282 -7 4 8 -266 751 -305 836 -10 22 -235 632 -242 655 -4
12 27 62 72 117 6 7 10 17 10 23 0 5 5 10 10 10 6 0 10 5 10 10 0 6 4 16 10
23 46 57 60 76 60 85 0 6 3 12 8 14 4 2 25 30 47 63 22 33 42 62 45 65 10 9
150 210 150 215 0 3 9 14 20 25 34 34 24 40 -60 40 -1030 6 -1843 3 -1851 -6z
m794 -714 c48 -127 83 -218 152 -395 37 -93 79 -204 95 -245 15 -41 37 -99 49
-127 l21 -53 -244 0 -243 0 3 123 c4 153 14 666 14 728 l0 47 62 -2 62 -1 29
-75z m-2470 -3534 c44 -44 174 -101 297 -132 71 -17 80 -17 80 1 0 34 116 -19
143 -65 23 -38 21 -67 -7 -147 -13 -37 -26 -77 -29 -88 l-5 -20 -1 20 c0 11 8
44 19 73 44 116 27 132 -214 202 -73 22 -163 50 -201 64 -74 27 -95 23 -74
-15 27 -53 78 -87 209 -141 60 -24 15 -19 -102 13 -54 15 -67 9 -49 -24 12
-23 55 -55 126 -94 37 -21 37 -22 10 -17 -16 4 -38 11 -47 15 -20 11 -48 2
-48 -15 1 -32 101 -106 144 -106 8 0 17 -4 20 -9 4 -5 -19 -3 -50 4 -46 11
-56 10 -61 -1 -12 -32 54 -83 138 -105 31 -8 29 -8 -14 -5 -26 2 -50 0 -53 -5
-16 -26 30 -70 94 -89 l27 -8 -27 -1 c-38 -1 -35 -21 9 -51 47 -32 127 -36
190 -9 25 10 46 19 47 19 2 0 11 -18 21 -40 17 -39 17 -41 0 -80 -14 -30 -23
-39 -34 -34 -9 3 -29 10 -46 16 -43 14 -118 51 -133 65 -7 7 -17 13 -22 13
-23 0 -152 144 -201 224 -30 49 -54 92 -55 95 0 3 -11 29 -23 56 -46 101 -86
230 -97 310 -10 73 -14 135 -10 135 3 0 16 -11 29 -24z m1552 -156 c-3 -5 -16
-10 -28 -9 -20 1 -20 2 3 9 14 4 26 8 28 9 2 1 0 -3 -3 -9z m101 -3 c4 -3 -6
-5 -20 -3 -14 1 -29 5 -32 9 -3 3 6 4 20 3 15 -2 29 -6 32 -9z m-166 -7 c-8
-5 -22 -9 -30 -9 -10 0 -8 3 5 9 27 12 43 12 25 0z m290 -10 c55 -19 46 -19
-60 6 -38 8 -46 12 -25 13 17 0 55 -9 85 -19z m-340 1 c0 -5 -12 -12 -27 -16
-40 -9 -164 -73 -190 -98 -13 -11 -23 -15 -23 -9 0 17 153 102 238 131 1 1 2
-3 2 -8z m476 -56 c35 -19 72 -42 82 -52 74 -69 122 -117 119 -119 -1 -2 -35
28 -75 65 -39 37 -102 84 -139 104 -37 20 -64 37 -59 37 5 0 38 -16 72 -35z
m-302 -16 c3 -2 -9 -5 -26 -6 -18 0 -26 2 -18 7 13 8 36 8 44 -1z m-132 -19
c-40 -11 -101 -34 -135 -52 -78 -41 -182 -145 -224 -223 -18 -33 -33 -55 -33
-50 0 22 62 116 114 172 29 32 80 74 112 93 64 38 175 80 214 79 14 0 -8 -9
-48 -19z m205 14 c-3 -3 -12 -4 -19 -1 -8 3 -5 6 6 6 11 1 17 -2 13 -5z m111
-30 c4 -4 -2 -4 -13 0 -11 4 -32 10 -48 13 -15 3 -30 9 -33 14 -6 10 85 -16
94 -27z m154 -82 c26 -20 46 -38 43 -40 -2 -2 -23 12 -47 31 -24 19 -62 45
-86 57 -23 12 -45 27 -49 33 -9 15 81 -38 139 -81z m-799 11 c-72 -70 -138
-184 -169 -292 -14 -45 -14 -45 -8 -6 7 49 52 149 95 212 39 56 110 135 116
129 3 -2 -13 -22 -34 -43z m-1356 31 c-3 -3 -12 -4 -19 -1 -8 3 -5 6 6 6 11 1
17 -2 13 -5z m1763 -33 c5 -11 8 -26 6 -33 -3 -7 -7 -56 -11 -108 -14 -200
-17 -211 -58 -205 -12 2 -60 13 -107 25 -47 11 -96 23 -110 26 -68 13 -90 25
-90 49 0 27 2 29 80 86 30 22 62 46 70 52 71 57 176 127 191 127 10 0 23 -9
29 -19z m239 -52 c53 -38 103 -75 111 -82 8 -7 39 -29 68 -50 28 -21 52 -45
52 -52 0 -19 -27 -44 -53 -50 -12 -2 -70 -16 -130 -30 -59 -14 -117 -27 -129
-29 -45 -6 -46 1 -64 258 -8 131 9 135 145 35z m240 -42 l25 -32 -32 29 c-33
31 -37 36 -24 35 4 0 18 -14 31 -32z m146 -59 c14 -26 25 -51 25 -55 -1 -4
-14 17 -30 47 -17 30 -37 66 -46 80 l-16 25 21 -25 c12 -14 33 -46 46 -72z
m-67 -69 c20 -48 35 -99 28 -99 -2 0 -12 25 -22 56 -10 31 -28 72 -41 91 -28
42 -30 55 -3 20 11 -14 28 -45 38 -68z m575 6 c-3 -9 -8 -14 -10 -11 -3 3 -2
9 2 15 9 16 15 13 8 -4z m-1612 -66 c-5 -13 -10 -19 -10 -12 -1 15 10 45 15
40 3 -2 0 -15 -5 -28z m1158 -19 c0 -9 -4 -8 -9 5 -5 11 -9 27 -9 35 0 9 4 8
9 -5 5 -11 9 -27 9 -35z m-1175 -54 c-3 -21 -8 -35 -11 -32 -2 2 -1 20 3 40 3
21 8 35 11 32 2 -2 1 -20 -3 -40z m1183 -3 c-3 -10 -5 -4 -5 12 0 17 2 24 5
18 2 -7 2 -21 0 -30z m-90 -10 c-3 -10 -5 -4 -5 12 0 17 2 24 5 18 2 -7 2 -21
0 -30z m736 30 c-7 -2 -19 -2 -25 0 -7 3 -2 5 12 5 14 0 19 -2 13 -5z m-1926
-25 c-3 -8 -6 -5 -6 6 -1 11 2 17 5 13 3 -3 4 -12 1 -19z m358 -53 c126 -54
155 -70 155 -89 0 -15 -158 -278 -172 -287 -27 -17 -67 27 -68 73 0 5 -6 25
-14 45 -8 21 -28 83 -46 138 -17 55 -34 107 -37 115 -16 38 15 74 51 60 11 -4
71 -29 131 -55z m739 46 c15 -17 14 -25 -18 -127 -19 -60 -46 -147 -61 -194
-30 -95 -48 -117 -78 -97 -11 7 -29 29 -41 49 -152 261 -150 252 -84 278 18 7
61 26 96 42 35 15 67 28 71 28 4 0 25 9 47 20 48 24 47 24 68 1z m1189 12
c-13 -2 -33 -2 -45 0 -13 2 -3 4 22 4 25 0 35 -2 23 -4z m-1612 -29 c17 -8 29
-18 26 -20 -3 -3 -20 4 -38 15 -40 25 -31 28 12 5z m-674 -16 c-3 -8 -6 -5 -6
6 -1 11 2 17 5 13 3 -3 4 -12 1 -19z m605 6 c-13 -9 -27 -26 -32 -38 -6 -14
-9 -16 -9 -5 -1 18 35 59 52 59 6 0 1 -7 -11 -16z m686 -9 c-3 -3 -9 2 -12 12
-6 14 -5 15 5 6 7 -7 10 -15 7 -18z m-1292 -39 c0 -14 -3 -23 -7 -20 -6 3 -6
22 0 42 3 10 7 -2 7 -22z m723 -16 c0 -10 -3 -8 -9 5 -12 27 -12 43 0 25 5 -8
9 -22 9 -30z m478 18 c-3 -8 -6 -5 -6 6 -1 11 2 17 5 13 3 -3 4 -12 1 -19z
m-1111 -17 c0 -16 -4 -27 -7 -25 -4 2 -6 12 -4 22 2 9 4 20 4 25 1 4 3 7 5 7
2 0 3 -13 2 -29z m1201 -28 c-3 -10 -5 -4 -5 12 0 17 2 24 5 18 2 -7 2 -21 0
-30z m-675 -33 c18 -11 28 -20 23 -20 -12 0 -57 29 -67 44 -4 6 -7 18 -7 26 0
8 4 5 9 -7 5 -13 24 -32 42 -43z m585 38 c-3 -8 -6 -5 -6 6 -1 11 2 17 5 13 3
-3 4 -12 1 -19z m-1960 6 c-3 -3 -12 -4 -19 -1 -8 3 -5 6 6 6 11 1 17 -2 13
-5z m2840 0 c-3 -3 -12 -4 -19 -1 -8 3 -5 6 6 6 11 1 17 -2 13 -5z m-1382 -34
c-10 -11 -25 -20 -34 -19 -11 0 -10 3 5 9 12 4 24 16 28 26 3 9 9 14 13 10 3
-3 -2 -15 -12 -26z m-698 -42 c-2 -13 -4 -5 -4 17 -1 22 1 32 4 23 2 -10 2
-28 0 -40z m90 20 c-3 -7 -5 -2 -5 12 0 14 2 19 5 13 2 -7 2 -19 0 -25z m1186
-70 c-8 -34 -19 -69 -24 -78 -7 -11 -8 -8 -3 10 20 70 31 130 25 136 -3 4 -1
4 5 1 8 -5 7 -24 -3 -69z m-1175 16 c-3 -14 -5 -12 -10 9 -3 19 -2 25 4 19 6
-6 8 -18 6 -28z m-799 1 c-3 -2 -23 -7 -45 -10 -21 -3 -45 -8 -51 -10 -7 -2
-13 0 -13 5 0 6 12 10 28 11 35 1 62 6 70 13 3 3 8 4 10 1 3 -3 3 -7 1 -10z
m51 11 c0 -2 -9 -6 -20 -9 -11 -3 -18 -1 -14 4 5 9 34 13 34 5z m1821 -58
c-11 -31 -31 -78 -46 -104 -29 -52 -105 -148 -111 -141 -3 2 13 23 34 46 45
50 92 133 117 209 9 29 19 51 21 49 2 -2 -5 -29 -15 -59z m-1164 30 c-3 -8 -6
-5 -6 6 -1 11 2 17 5 13 3 -3 4 -12 1 -19z m674 -19 c13 -18 35 -44 49 -59 14
-15 41 -47 60 -70 19 -24 43 -52 53 -62 21 -22 22 -64 1 -72 -9 -3 -104 -6
-213 -6 -272 0 -271 -3 -111 184 69 81 105 116 120 116 10 0 28 -14 41 -31z
m-574 -11 c-3 -8 -6 -5 -6 6 -1 11 2 17 5 13 3 -3 4 -12 1 -19z m-612 2 c-3
-5 -14 -10 -23 -9 -14 0 -13 2 3 9 27 11 27 11 20 0z m587 -151 c32 -61 155
-199 177 -199 6 0 11 -5 11 -11 0 -18 -72 41 -123 100 -50 58 -123 194 -132
246 -3 17 4 6 14 -22 11 -29 34 -80 53 -114z m42 115 c3 -8 2 -12 -4 -9 -6 3
-10 10 -10 16 0 14 7 11 14 -7z m109 -171 c53 -57 144 -120 198 -138 27 -9 48
-19 46 -21 -3 -3 -27 4 -55 14 -57 22 -141 80 -185 127 -35 37 -107 144 -107
159 0 6 16 -16 36 -48 19 -32 50 -74 67 -93z m984 80 c-14 -26 -34 -59 -46
-73 -12 -14 -5 2 14 34 19 33 37 68 41 78 3 11 8 17 11 15 2 -3 -7 -27 -20
-54z m-83 -128 c-9 -14 -19 -24 -21 -21 -6 6 20 46 30 46 4 0 0 -11 -9 -25z
m-164 -26 c-62 -53 -196 -110 -254 -108 -12 0 11 9 51 19 80 21 130 44 188 89
51 39 60 39 15 0z m130 -2 c0 -8 -48 -55 -80 -79 -42 -30 -154 -88 -172 -88
-7 0 20 16 60 35 79 37 136 77 165 113 17 20 27 27 27 19z m-686 -152 c37 -14
91 -30 119 -35 l52 -9 -51 4 c-60 4 -203 57 -236 86 -23 20 -22 20 13 0 20
-11 66 -32 103 -46z m109 58 c-7 -2 -19 -2 -25 0 -7 3 -2 5 12 5 14 0 19 -2
13 -5z m44 -9 c-3 -3 -12 -4 -19 -1 -8 3 -5 6 6 6 11 1 17 -2 13 -5z m38 -12
c-3 -3 -11 0 -18 7 -9 10 -8 11 6 5 10 -3 15 -9 12 -12z m215 -62 c-8 -5 -24
-9 -35 -9 -16 1 -16 2 5 9 35 11 48 11 30 0z m-170 -20 c0 -5 -15 -9 -32 -9
l-33 1 30 8 c17 4 31 8 33 9 1 0 2 -3 2 -9z m44 2 c2 -4 -5 -9 -17 -9 -17 -2
-19 0 -7 7 18 12 18 12 24 2z m59 1 c-7 -2 -21 -2 -30 0 -10 3 -4 5 12 5 17 0
24 -2 18 -5z"/>
<path d="M3353 8240 c-160 -3 -294 -8 -297 -11 -5 -5 22 -49 52 -84 4 -5 17
-25 27 -42 11 -18 23 -33 27 -33 4 0 8 -5 8 -11 0 -6 14 -28 30 -49 17 -21 30
-43 30 -48 0 -6 6 -15 13 -19 7 -4 26 -29 42 -55 17 -27 33 -48 38 -48 4 0 7
-5 7 -10 0 -6 28 -50 63 -98 34 -48 75 -106 91 -129 l28 -42 -117 -318 c-65
-175 -133 -358 -150 -408 -18 -49 -103 -281 -189 -514 -86 -233 -155 -430
-152 -438 3 -7 13 -16 23 -20 9 -4 24 -14 33 -22 9 -9 36 -32 60 -51 24 -19
64 -52 89 -73 25 -21 61 -50 80 -65 18 -15 41 -35 50 -44 8 -10 20 -18 25 -18
5 0 19 -10 31 -22 12 -13 39 -36 60 -53 21 -16 43 -35 49 -40 6 -6 29 -24 51
-40 21 -17 57 -47 80 -67 22 -21 43 -38 48 -38 4 0 15 -8 25 -17 21 -21 108
-98 147 -130 50 -43 52 -35 55 170 1 83 3 188 5 232 2 44 4 140 5 214 l2 133
-91 90 c-50 49 -91 91 -91 93 0 1 23 65 51 141 27 77 57 157 64 179 8 22 43
118 78 212 l63 173 42 -88 c22 -48 82 -175 131 -282 50 -107 96 -196 103 -198
7 -1 23 19 35 45 11 27 41 93 66 148 24 55 54 120 65 145 l21 45 -4 -275 c-9
-566 -15 -906 -21 -1272 -4 -216 -3 -378 2 -378 9 0 53 -34 85 -65 9 -8 19
-15 23 -15 4 0 21 -13 39 -30 18 -16 35 -30 38 -30 3 0 17 -9 30 -21 13 -11
58 -46 99 -77 41 -32 77 -59 80 -62 3 -3 23 -18 45 -35 47 -34 50 -37 90 -71
17 -14 42 -32 58 -42 15 -9 27 -20 27 -24 0 -4 9 -8 20 -8 16 0 20 7 20 33 4
719 -2 3963 -8 3968 -12 12 -612 17 -621 5 -4 -6 -16 -33 -26 -61 -10 -27 -26
-68 -36 -90 -32 -72 -99 -243 -99 -254 0 -30 -21 -3 -58 77 -111 236 -154 322
-165 329 -14 9 -208 10 -624 3z"/>
</g>
</svg>
